PathFileType	4	(X/Y/Z)	pose_F01_0-91.trc
DataRate	CameraRate	NumFrames	NumMarkers	Units	OrigDataRate	OrigDataStartFrame	OrigNumFrames
30	30	12	21	m	30	15	91
Frame#	Time	CHip			RHip			RKnee			RAnkle			RBigToe			RSmallToe			RHeel			LHip			LKnee			LAnkle			LBigToe			LSmallToe			LHeel			Neck			Nose			RShoulder			RElbow			RWrist			LShoulder			LElbow			LWrist			
		X1	Y1	Z1	X2	Y2	Z2	X3	Y3	Z3	X4	Y4	Z4	X5	Y5	Z5	X6	Y6	Z6	X7	Y7	Z7	X8	Y8	Z8	X9	Y9	Z9	X10	Y10	Z10	X11	Y11	Z11	X12	Y12	Z12	X13	Y13	Z13	X14	Y14	Z14	X15	Y15	Z15	X16	Y16	Z16	X17	Y17	Z17	X18	Y18	Z18	X19	Y19	Z19	X20	Y20	Z20	X21	Y21	Z21	
15	0.5	-0.27838703079122284	1.8805418589298804	-0.6200300640825457	-0.2917440961973998	1.877294003349481	-0.5550442258945868	-0.29224650826416393	1.7446672110318064	-0.5378653922777543													-0.2613150446734869	1.8846776132400795	-0.6871603258821851	-0.2612169269889493	1.7530201438250939	-0.6814186006782655													-0.2834515561662976	2.047701267778812	-0.6359010749474802	-0.26781040650531635	2.1100957035922687	-0.6108366235103327	-0.30515505377609553	2.0425089994987893	-0.547203001860343	-1.5898887733216147	1.8665973377598364	0.8380129656755448	-0.3073622763698919	1.8823232678024413	-0.4833984459626942	-0.26006792989466093	2.05358060904046	-0.7272096253212169	-0.2517176733864918	1.9663561930211468	-0.7396462171417971	-0.24268845640589207	1.8883435085422782	-0.7344332024483392
16	0.5333333333333333	-0.27838703079122284	1.8805418589298804	-0.6200300640825457	-0.2917440961973998	1.877294003349481	-0.5550442258945868	-0.29224650826416393	1.7446672110318064	-0.5378653922777543													-0.2613150446734869	1.8846776132400795	-0.6871603258821851	-0.2612169269889493	1.7530201438250939	-0.6814186006782655													-0.2834515561662976	2.047701267778812	-0.6359010749474802	-0.26781040650531635	2.1100957035922687	-0.6108366235103327	-0.30515505377609553	2.0425089994987893	-0.547203001860343	-1.5898887733216147	1.8665973377598364	0.8380129656755448	-0.3073622763698919	1.8823232678024413	-0.4833984459626942	-0.26006792989466093	2.05358060904046	-0.7272096253212169	-0.2517176733864918	1.9663561930211468	-0.7396462171417971	-0.24268845640589207	1.8883435085422782	-0.7344332024483392
17	0.5666666666666667	-0.27838703079122284	1.8805418589298804	-0.6200300640825457	-0.2917440961973998	1.877294003349481	-0.5550442258945868	-0.29224650826416393	1.7446672110318064	-0.5378653922777543													-0.2613150446734869	1.8846776132400795	-0.6871603258821851	-0.2612169269889493	1.7530201438250939	-0.6814186006782655													-0.2834515561662976	2.047701267778812	-0.6359010749474802	-0.26781040650531635	2.1100957035922687	-0.6108366235103327	-0.30515505377609553	2.0425089994987893	-0.547203001860343	-1.5898887733216147	1.8665973377598364	0.8380129656755448	-0.3073622763698919	1.8823232678024413	-0.4833984459626942	-0.26006792989466093	2.05358060904046	-0.7272096253212169	-0.2517176733864918	1.9663561930211468	-0.7396462171417971	-0.24268845640589207	1.8883435085422782	-0.7344332024483392
18	0.6	-0.27838703079122284	1.8805418589298804	-0.6200300640825457	-0.2917440961973998	1.877294003349481	-0.5550442258945868	-0.29224650826416393	1.7446672110318064	-0.5378653922777543													-0.2613150446734869	1.8846776132400795	-0.6871603258821851	-0.2612169269889493	1.7530201438250939	-0.6814186006782655													-0.2834515561662976	2.047701267778812	-0.6359010749474802	-0.26781040650531635	2.1100957035922687	-0.6108366235103327	-0.30515505377609553	2.0425089994987893	-0.547203001860343	-1.5898887733216147	1.8665973377598364	0.8380129656755448	-0.3073622763698919	1.8823232678024413	-0.4833984459626942	-0.26006792989466093	2.05358060904046	-0.7272096253212169	-0.2517176733864918	1.9663561930211468	-0.7396462171417971	-0.24268845640589207	1.8883435085422782	-0.7344332024483392
19	0.6333333333333333	-0.27838703079122284	1.8805418589298804	-0.6200300640825457	-0.2917440961973998	1.877294003349481	-0.5550442258945868	-0.29224650826416393	1.7446672110318064	-0.5378653922777543													-0.2613150446734869	1.8846776132400795	-0.6871603258821851	-0.2612169269889493	1.7530201438250939	-0.6814186006782655													-0.2834515561662976	2.047701267778812	-0.6359010749474802	-0.26781040650531635	2.1100957035922687	-0.6108366235103327	-0.30515505377609553	2.0425089994987893	-0.547203001860343	-1.5898887733216147	1.8665973377598364	0.8380129656755448	-0.3073622763698919	1.8823232678024413	-0.4833984459626942	-0.26006792989466093	2.05358060904046	-0.7272096253212169	-0.2517176733864918	1.9663561930211468	-0.7396462171417971	-0.24268845640589207	1.8883435085422782	-0.7344332024483392
20	0.6666666666666666	-0.27838703079122284	1.8805418589298804	-0.6200300640825457	-0.2917440961973998	1.877294003349481	-0.5550442258945868	-0.29224650826416393	1.7446672110318064	-0.5378653922777543													-0.2613150446734869	1.8846776132400795	-0.6871603258821851	-0.2612169269889493	1.7530201438250939	-0.6814186006782655													-0.2834515561662976	2.047701267778812	-0.6359010749474802	-0.26781040650531635	2.1100957035922687	-0.6108366235103327	-0.30515505377609553	2.0425089994987893	-0.547203001860343	-1.5898887733216147	1.8665973377598364	0.8380129656755448	-0.3073622763698919	1.8823232678024413	-0.4833984459626942	-0.26006792989466093	2.05358060904046	-0.7272096253212169	-0.2517176733864918	1.9663561930211468	-0.7396462171417971	-0.24268845640589207	1.8883435085422782	-0.7344332024483392
21	0.7	-0.2795697168937023	1.8816060240796022	-0.6149980507421852	-0.2920145114510066	1.8775944037288008	-0.5550128567484921	-0.29224650826416393	1.7446672110318064	-0.5378653922777543													-0.2607193541889952	1.8842129439737756	-0.6841202368723344	-0.2612169269889493	1.7530201438250939	-0.6814186006782655													-0.2835004406158177	2.047587864835033	-0.6359254500903022	-0.26691379367136997	2.1099498377011536	-0.6080127835686145	-0.30712986805569575	2.042416209837002	-0.5451689281752969	-1.5946979368871141	1.8647632008270658	0.8486647062562814	-0.30725611317671697	1.881886772416142	-0.4831714861960448	-0.2621637276082821	2.053437560926041	-0.7252111527544749	-0.251665150019515	1.9656390083570299	-0.7393704931645265	-0.24259499052461073	1.8874632699979246	-0.7341914275010823
22	0.7333333333333333	-0.2806692237380656	1.8804717091168133	-0.6179362989032354	-0.2920217123074139	1.8774292174289087	-0.5550493030580959	-0.29224650826416393	1.7446672110318064	-0.5378653922777543													-0.2617061793153289	1.8857436678746413	-0.687275397685759	-0.2612169269889493	1.7530201438250939	-0.6814186006782655													-0.28342902051259894	2.047724337855868	-0.6359642861475273	-0.2677919157257574	2.1101976180428155	-0.6108326208089856	-0.3051330663505044	2.0424696587147295	-0.5472334022945332	-1.5946896324270772	1.8646917868688866	0.8486858595076223	-0.3081227405859593	1.8807353832675793	-0.4779812375369715	-0.2600988706326068	2.053409633923085	-0.7273022780162186	-0.2518520129769699	1.964810948348432	-0.7397488969711719	-0.24375688706577103	1.8872196865736475	-0.7373500672700085
23	0.7666666666666667	-0.2785768128838753	1.8831584471355673	-0.6203375325699091	-0.2920989337830165	1.8789321773081886	-0.5552630522868923	-0.29224650826416393	1.7446672110318064	-0.5378653922777543													-0.2608120936449553	1.8855634711962153	-0.6843739328143685	-0.2612169269889493	1.7530201438250939	-0.6814186006782655													-0.28348684158842463	2.047686452878895	-0.6359056461173467	-0.2677724501480845	2.110189645621136	-0.6108531567285006	-0.3071257307592408	2.0436229290860366	-0.54560207297691	-1.5946865044033456	1.8646650458787284	0.8486956425690395	-0.30703333021704254	1.8792382969484331	-0.48263450015634746	-0.2621858531035853	2.05342668469035	-0.725171636057224	-0.25170991868220877	1.9671829377292	-0.7396858138501838	-0.24138766151801774	1.8881009510841136	-0.7397021278905378
24	0.8	-0.28062563170948174	1.8829476655537936	-0.6182755856647446	-0.29211895644737823	1.8786801783354379	-0.55533252331954	-0.29224650826416393	1.7446672110318064	-0.5378653922777543													-0.2637921371411055	1.8854056943281556	-0.6851719573251137	-0.2612169269889493	1.7530201438250939	-0.6814186006782655													-0.28343952187974186	2.047697931170855	-0.6359480453156736	-0.2678087384695461	2.1101583149711725	-0.6108402899828629	-0.30708217649371516	2.0425094349894404	-0.5451986820308354	-1.595670989951037	1.864611100652326	0.8495303682110221	-0.3092324628806747	1.8827589922233157	-0.48138008066586074	-0.2600556657142899	2.0535954549146345	-0.7272785545067599	-0.2515196650165079	1.964934712519525	-0.7391608640312572	-0.24353988534355006	1.889009960274865	-0.7374416640380612
25	0.8333333333333334	-0.278699472950367	1.8842554902315507	-0.6205989803997444	-0.29222892363525743	1.8800489590345173	-0.555509705464615	-0.29224650826416393	1.7446672110318064	-0.5378653922777543													-0.2617858068416529	1.8865687843723675	-0.6875139946333092	-0.2612169269889493	1.7530201438250939	-0.6814186006782655													-0.2834467844106312	2.047696903618852	-0.6359350783552502	-0.2649494357293424	2.1100334269126337	-0.6100475841248459	-0.30710120019839415	2.0423731938792016	-0.545149212699013	-1.596579667654993	1.8665680087734526	0.8512906795462813	-0.30818968596185586	1.8830059574004172	-0.47822769030436063	-0.26022732689031036	2.053305726510426	-0.7278091412287587	-0.24957955219937972	1.966504007936238	-0.7419847885685121	-0.23934971668692773	1.8881427858755477	-0.7420691917287815
26	0.8666666666666667	-0.28050556451741193	1.881598069608575	-0.6181202073298393	-0.2918413118297106	1.878882162746863	-0.5552598798592652	-0.29224650826416393	1.7446672110318064	-0.5378653922777543													-0.26350829174303986	1.8854459143478968	-0.6851820526452207	-0.2612169269889493	1.7530201438250939	-0.6814186006782655													-0.2833699692484089	2.047896768837303	-0.6359622911257428	-0.2648158662694318	2.111330297762616	-0.6098949551306084	-0.30514172718507687	2.0438136078296116	-0.5476927145578799	-1.5965617040649547	1.8665890539879777	0.8512530852359548	-0.30917642787308197	1.884377294675799	-0.48127359812061654	-0.26017970063749285	2.0533899024372206	-0.727785714905596	-0.24811280404404584	1.9669442466686284	-0.7473374855009708	-0.23332724472259603	1.8873028351556638	-0.7517117758609999
